<svg width="23" height="21" viewBox="0 0 23 21" fill="none" xmlns="http://www.w3.org/2000/svg">
<path d="M0 0V18.3745H7.1849V19.6883H5.87167V21H16.5139V19.6883H15.2006V18.3745H22.3856V0H0ZM13.8889 19.6883H8.49664V18.3745H13.8889V19.6883H13.8889ZM21.0739 17.0628H1.3117V14.4362H21.0738V17.0628H21.0739ZM21.0739 13.1245H1.3117V1.31174H21.0738V13.1245H21.0739Z" fill="black"/>
<path d="M8.91677 4.84731L7.98925 3.9198L4.69092 7.21813L7.98925 10.5164L8.91677 9.5889L6.54595 7.21813L8.91677 4.84731Z" fill="black"/>
<path d="M14.3964 3.9198L13.4689 4.84731L15.8397 7.21813L13.4689 9.5889L14.3964 10.5164L17.6947 7.21813L14.3964 3.9198Z" fill="black"/>
<path d="M11.3109 3.26299L9.78815 10.918L11.0747 11.1739L12.5974 3.51891L11.3109 3.26299Z" fill="black"/>
</svg>
