<svg width="96" height="66" viewBox="0 0 96 66" fill="none" xmlns="http://www.w3.org/2000/svg">
<path d="M13.3405 9.6465C13.3405 9.6465 17.9873 4.57761 21.2056 2.47684C22.231 1.80813 29.8573 -2.14673 34.7546 11.4647C37.4339 18.9173 37.4786 24.4688 31.3886 26.8363C27.7419 28.2544 29.0452 30.9092 29.0452 30.9092" fill="url(#paint0_linear_53845_406)"/>
<path d="M20.7605 1.85908C17.4959 3.98998 12.9382 8.94485 12.7459 9.15425C12.461 9.46583 12.4944 9.93948 12.8226 10.2106C13.1499 10.4813 13.6473 10.4501 13.9326 10.1381C13.979 10.0876 18.5529 5.11512 21.6516 3.09323C21.7444 3.03156 24.005 1.59017 26.7582 2.45751C29.6534 3.37004 32.1616 6.56871 34.0095 11.7064C36.9512 19.8869 36.0787 24.2057 31.0914 26.1429C29.6526 26.7037 28.7053 27.5141 28.2769 28.5564C27.7114 29.9311 28.307 31.1728 28.3327 31.2258C28.5146 31.5984 28.9768 31.7565 29.3693 31.5858C29.7629 31.4169 29.9376 30.9748 29.7622 30.5994C29.7592 30.5923 29.4228 29.8558 29.7507 29.0842C30.0203 28.4474 30.6716 27.9228 31.6871 27.5291C39.2109 24.603 37.6759 17.2773 35.4984 11.2213C33.456 5.54432 30.6825 2.11868 27.2542 1.03728C23.8271 -0.0430498 21.0635 1.66224 20.7605 1.85908" fill="#363254"/>
<path d="M75.8284 12.5812H85.5877C86.4067 12.5812 87.0699 13.1166 87.0699 13.7749C87.0699 14.4335 86.4067 14.9678 85.5877 14.9678H77.9277L75.8284 12.5812" fill="url(#paint1_linear_53845_406)"/>
<path d="M85.5877 13.3294C85.9974 13.3294 86.2823 13.5646 86.2823 13.7751C86.2823 13.9852 85.9974 14.2204 85.5877 14.2204C85.5877 14.2204 78.9631 14.2204 78.2955 14.2204C78.1387 14.0433 77.904 13.774 77.5126 13.3294C79.8189 13.3294 85.5877 13.3294 85.5877 13.3294ZM74.145 11.8335L77.5599 15.7166H85.5877C86.8397 15.7166 87.8569 14.8457 87.8569 13.7751C87.8569 12.7041 86.8397 11.8335 85.5877 11.8335H74.145Z" fill="#363254"/>
<path d="M88.6078 9.80684C89.9496 9.17686 91.5177 9.33104 92.114 10.1507C92.7074 10.9725 92.1016 12.1461 90.7602 12.7785C89.4209 13.4078 85.91 14.169 85.3148 13.3461C84.7188 12.5265 87.2682 10.4365 88.6078 9.80684Z" fill="#8B9DD7"/>
<path d="M88.9556 10.4776C89.9965 9.98925 91.1393 10.1269 91.4653 10.5762C91.5559 10.7021 91.577 10.8466 91.5297 11.0194C91.4456 11.3313 91.1069 11.7809 90.4102 12.109C89.1164 12.7164 86.8188 13.0728 86.109 12.9007C86.371 12.3209 87.8081 11.0176 88.9556 10.4776V10.4776ZM88.2592 9.13696C87.1372 9.66296 84.8552 11.3399 84.4943 12.6655L84.6675 13.7709C85.7455 15.2632 90.0947 13.9262 91.1087 13.4489C92.1187 12.9739 92.8275 12.2252 93.0538 11.3948C93.2157 10.8028 93.112 10.2108 92.7616 9.72714C91.9397 8.59554 89.9634 8.33667 88.2592 9.13696Z" fill="#363254"/>
<path d="M90.9916 14.6493C92.4302 15.1226 93.2313 16.2187 92.7875 17.0986C92.3396 17.9796 90.8133 18.3066 89.3758 17.8319C87.9405 17.3596 85.0536 15.5791 85.4993 14.7002C85.9468 13.8175 89.5563 14.176 90.9916 14.6493" fill="#8B9DD7"/>
<path d="M91.2504 13.9432H91.249H91.2504ZM90.7337 15.3556H90.7346C91.5073 15.6112 91.9305 16.0361 92.0676 16.3495C92.172 16.589 92.1015 16.7295 92.0774 16.7754C91.841 17.2423 90.744 17.4911 89.634 17.125C88.3653 16.708 86.6597 15.5331 86.3384 14.9923C86.9336 14.7959 89.3458 14.8977 90.7338 15.3556H90.7337ZM84.7906 14.3756L84.7914 15.461C85.3455 16.7295 87.9025 18.139 89.1188 18.5395C90.9481 19.1437 92.8721 18.6536 93.496 17.4255C93.6288 17.1605 93.695 16.8762 93.695 16.5879C93.695 16.3161 93.6368 16.0415 93.5197 15.7726C93.1671 14.9676 92.3398 14.3018 91.249 13.9432C90.1608 13.5836 85.6129 12.7525 84.7907 14.3756" fill="#363254"/>
<path d="M91.2019 11.9379C93.3365 11.9243 95.0752 12.6823 95.0832 13.6328C95.0938 14.583 93.3732 15.3639 91.2376 15.3775C89.1063 15.3919 84.2761 14.6558 84.2663 13.7063C84.2564 12.7547 89.0702 11.9537 91.2019 11.9379" fill="#8B9DD7"/>
<path d="M94.2963 13.6399C94.2963 13.6761 94.2621 13.7467 94.1665 13.8392C93.7808 14.2132 92.6966 14.6198 91.2329 14.6291C89.4025 14.6413 86.5072 14.1519 85.3931 13.6976C86.4991 13.2265 89.3803 12.6983 91.2082 12.6861H91.2073C93.2288 12.6729 94.2944 13.3885 94.2963 13.6399H94.2963ZM91.1973 11.1892H91.1962C89.6455 11.2003 85.0406 11.7385 83.8592 12.8794L83.4797 13.7137C83.5016 15.9131 91.166 16.1261 91.2435 16.1261C92.9611 16.1143 94.5117 15.6406 95.2896 14.8887C95.6753 14.5162 95.8757 14.0802 95.8706 13.6252C95.8586 12.1978 93.8929 11.1727 91.1973 11.1892" fill="#363254"/>
<path d="M41.8447 36.318V55.5301C41.8447 60.2673 37.0749 61.9651 31.1924 61.9651C25.3089 61.9651 20.5414 60.2673 20.5414 55.5301V36.0914" fill="url(#paint2_linear_53845_406)"/>
<path d="M19.7545 36.0914V55.5302C19.7545 60.163 23.8154 62.7135 31.1923 62.7135C38.5691 62.7135 42.6316 60.163 42.6316 55.5302V36.3181C42.6316 35.9046 42.279 35.5694 41.8446 35.5694C41.4098 35.5694 41.0576 35.9046 41.0576 36.3181V55.5302C41.0576 60.2308 35.6937 61.2168 31.1923 61.2168C26.6926 61.2168 21.3286 60.2308 21.3286 55.5302V36.0914C21.3286 35.6788 20.9758 35.3435 20.5414 35.3435C20.107 35.3435 19.7545 35.6788 19.7545 36.0914" fill="#363254"/>
<path d="M25.2096 55.5072C25.2096 57.4237 24.0823 58.9816 22.6911 58.9816C21.2997 58.9816 20.1721 57.4237 20.1721 55.5072C20.1721 53.5871 21.2997 49.2522 22.6911 49.2522C24.0823 49.2522 25.2096 53.5871 25.2096 55.5072" fill="#8B9DD7"/>
<path d="M20.4348 55.5075C20.4348 53.4196 21.6295 49.5017 22.6911 49.5017C23.7523 49.5017 24.9474 53.4196 24.9474 55.5075C24.9474 57.2866 23.9358 58.733 22.6911 58.733C21.4473 58.733 20.4348 57.2866 20.4348 55.5075ZM19.9095 55.5075C19.9095 57.5609 21.1569 59.2321 22.6911 59.2321C24.2247 59.2321 25.4716 57.5609 25.4716 55.5075C25.4716 53.6319 24.3639 49.0022 22.6911 49.0022C21.0188 49.0022 19.9095 53.6319 19.9095 55.5075Z" fill="#363254"/>
<path d="M20.8506 55.8534C20.8506 54.0072 22.2139 50.6834 23.209 50.6834C23.3043 50.6834 23.3977 50.7304 23.4877 50.8017C23.239 50.2166 22.954 49.8293 22.6521 49.8293C21.6563 49.8293 20.8506 54.0079 20.8506 55.8534Z" fill="#A6BDE6"/>
<path d="M26.3975 57.3532C26.3975 58.834 25.5013 60.0348 24.3949 60.0348C23.2875 60.0348 22.39 58.834 22.39 57.3532C22.39 55.868 23.2875 52.5234 24.3949 52.5234C25.5013 52.5234 26.3975 55.868 26.3975 57.3532Z" fill="#8B9DD7"/>
<path d="M22.6521 57.353C22.6521 55.8008 23.5934 52.7731 24.3948 52.7731C25.1963 52.7731 26.1348 55.8008 26.1348 57.353C26.1348 58.6936 25.3538 59.7851 24.3948 59.7851C23.4333 59.7851 22.6521 58.6936 22.6521 57.353ZM22.1276 57.353C22.1276 58.9686 23.1447 60.2842 24.3948 60.2842C25.643 60.2842 26.6598 58.9686 26.6598 57.353C26.6598 56.0887 25.8561 52.2737 24.3948 52.2737C22.9312 52.2737 22.1276 56.0887 22.1276 57.353Z" fill="#363254"/>
<path d="M23.2324 56.4706C23.1316 55.4153 24.0709 53.6638 24.8027 53.5358C24.8712 53.5268 24.9417 53.543 25.0117 53.572C24.7973 53.2687 24.5546 53.027 24.3466 53.1217C23.6223 53.4626 23.1316 55.4189 23.2324 56.4706" fill="#A6BDE6"/>
<path d="M74.4323 36.5528V55.7645C74.4323 60.5025 69.6629 62.1995 63.7802 62.1995C57.8971 62.1995 53.1276 60.5025 53.1276 55.7645V36.3262" fill="url(#paint3_linear_53845_406)"/>
<path d="M52.3403 36.3261V55.7644C52.3403 60.3962 56.4032 62.9477 63.7802 62.9477C67.1005 62.9477 69.763 62.431 71.6946 61.4127C74.0001 60.1965 75.2193 58.2438 75.2193 55.7644V36.5527C75.2193 36.1396 74.8668 35.8047 74.4324 35.8047C73.9979 35.8047 73.6461 36.1396 73.6461 36.5527V55.7644C73.6461 57.7218 72.7573 59.1409 70.9301 60.1051C69.2587 60.9853 66.7869 61.4511 63.7802 61.4511C59.2796 61.4511 53.9153 60.4636 53.9153 55.7644V36.3261C53.9153 35.9123 53.5621 35.5774 53.1277 35.5774C52.6932 35.5774 52.3403 35.9123 52.3403 36.3261" fill="#363254"/>
<path d="M57.7971 55.7411C57.7971 57.6576 56.6703 59.218 55.2794 59.218C53.8859 59.218 52.7595 57.6576 52.7595 55.7411C52.7595 53.8221 53.8859 49.4868 55.2794 49.4868C56.6703 49.4868 57.7971 53.8221 57.7971 55.7411Z" fill="#7483CA"/>
<path d="M53.021 55.741C53.021 54.7611 53.3197 53.2111 53.7465 51.9726C54.2212 50.5932 54.8088 49.7359 55.2793 49.7359C56.3398 49.7359 57.535 53.6535 57.535 55.741C57.535 57.5209 56.5232 58.968 55.2793 58.968C54.0339 58.968 53.021 57.5209 53.021 55.741ZM53.2476 51.8173C52.8052 53.0999 52.4963 54.7141 52.4963 55.741C52.4963 57.7952 53.7446 59.4671 55.2793 59.4671C56.8124 59.4671 58.0593 57.7952 58.0593 55.741C58.0593 53.8654 56.9514 49.2375 55.2793 49.2375C54.334 49.2375 53.6529 50.6395 53.2476 51.8173" fill="#363254"/>
<path d="M53.4395 56.0897C53.4395 54.2428 54.8016 50.9168 55.7967 50.9168C55.8924 50.9168 55.9855 50.9652 56.0758 51.0355C55.8262 50.4514 55.542 50.0635 55.2404 50.0635C54.2439 50.0635 53.4395 54.2428 53.4395 56.0897" fill="#839AD6"/>
<path d="M58.9856 57.5866C58.9856 59.0696 58.0899 60.2675 56.9824 60.2675C55.876 60.2675 54.9788 59.0696 54.9788 57.5866C54.9788 56.1018 55.876 52.7576 56.9824 52.7576C58.0899 52.7576 58.9856 56.1018 58.9856 57.5866Z" fill="#7483CA"/>
<path d="M55.2415 57.5865C55.2415 56.0343 56.1809 53.0074 56.9824 53.0074C57.7828 53.0074 58.723 56.0343 58.723 57.5865C58.723 58.9275 57.9418 60.0193 56.9824 60.0193C56.0219 60.0193 55.2415 58.9275 55.2415 57.5865ZM54.7169 57.5865C54.7169 59.204 55.733 60.5177 56.9824 60.5177C58.2318 60.5177 59.248 59.204 59.248 57.5865C59.248 56.3226 58.4439 52.5083 56.9824 52.5083C55.5198 52.5083 54.7169 56.3226 54.7169 57.5865Z" fill="#363254"/>
<path d="M55.8211 56.7048C55.7188 55.6507 56.6586 53.8995 57.3906 53.7707C57.4598 53.7614 57.5303 53.7769 57.5995 53.8062C57.3852 53.5029 57.1425 53.2609 56.9344 53.3559C56.2096 53.6969 55.7188 55.6528 55.8211 56.7048Z" fill="#839AD6"/>
<path d="M32.8828 10.079C37.0315 16.7266 36.5895 22.3423 31.0617 25.286C27.7521 27.0494 29.5741 29.375 29.5741 29.375" fill="url(#paint4_linear_53845_406)"/>
<path d="M32.4816 9.43482C32.1071 9.646 31.983 10.1053 32.2057 10.4606C34.5152 14.1591 35.3417 17.5088 34.5971 20.1452C34.0677 22.0194 32.7474 23.5293 30.6777 24.6332C29.3693 25.3296 28.5889 26.208 28.3568 27.2428C28.0411 28.6491 28.9064 29.7746 28.9435 29.8215C29.2016 30.1511 29.6887 30.2177 30.0378 29.9757C30.3862 29.7333 30.4624 29.2661 30.2098 28.9327C30.206 28.9262 29.7263 28.279 29.8993 27.5411C30.0378 26.951 30.5586 26.412 31.4463 25.9388C33.9018 24.63 35.474 22.8125 36.1178 20.5328C36.9744 17.4976 36.091 13.7504 33.5594 9.69656C33.338 9.34088 32.8541 9.22434 32.4816 9.43482" fill="#080604"/>
<path d="M57.1177 5.36589C57.1177 5.36589 50.2297 5.28594 25.0629 6.10775C-0.102503 6.9292 0.826253 15.8224 0.78717 28.5942V59.3137C0.78717 61.9121 3.07176 62.9602 5.89071 62.9602C8.70925 62.9602 10.9973 61.9121 10.9973 59.3137C10.9973 59.3137 11.6472 50.5359 12.2083 45.1963C13.4635 25.7982 37.2243 48.3861 54.4971 47.3319C70.193 46.3731 82.5537 41.0339 82.5537 28.345C82.5537 15.6532 74.4531 5.36589 57.1177 5.36589" fill="url(#paint5_linear_53845_406)"/>
<path d="M1.57412 59.3138V28.5943C1.57412 28.5971 1.57611 27.2407 1.57611 27.2407C1.58038 15.427 1.58379 7.62238 25.0894 6.85507C49.93 6.04474 57.0388 6.11286 57.1083 6.11322H57.1178C65.0321 6.11322 71.4813 8.36136 75.768 12.6138C79.6926 16.5056 81.7668 21.9452 81.7668 28.3451C81.7668 42.0412 66.9098 45.8239 54.4469 46.5855C47.8874 46.9849 40.1503 43.7888 33.3238 40.968C25.6718 37.807 19.0635 35.0773 14.9949 37.447C12.8458 38.6984 11.6778 41.2183 11.4234 45.1505C10.8704 50.4105 10.2183 59.1722 10.2122 59.2615C10.2104 61.8352 7.50397 62.2124 5.89075 62.2124C4.2791 62.2124 1.57413 61.8352 1.57413 59.3138H1.57412ZM25.0364 5.36061C0.00994704 6.17704 0.00568482 15.0118 0.00198969 27.2396L0 28.5921V59.3138C0 62.0655 2.20244 63.71 5.89074 63.71C9.58233 63.71 11.7845 62.0655 11.7845 59.3138C11.789 59.2776 12.4379 50.5371 12.9918 45.2703C13.2148 41.8328 14.1385 39.7012 15.8169 38.7227C19.1884 36.7604 25.7479 39.4707 32.6964 42.3409C39.6864 45.2287 47.6084 48.5023 54.5477 48.0785C73.1153 46.9437 83.3407 39.9357 83.3407 28.3451C83.3407 21.5526 81.1148 15.7551 76.9046 11.578C72.3141 7.02466 65.4716 4.61733 57.1178 4.61733H57.1272C57.0585 4.61652 49.9322 4.54598 25.0364 5.36061" fill="#363254"/>
<path d="M1.47379 29.4366C1.50065 32.3216 1.08893 57.5201 2.70384 59.0332C2.19647 57.9174 3.30643 33.5052 3.29222 31.9709L3.27729 31.0731C3.27729 30.6457 3.27729 30.2244 3.27729 29.8049C2.65481 29.5783 2.05066 29.2997 1.46739 28.9809L1.47379 29.4366Z" fill="url(#paint6_linear_53845_406)"/>
<path d="M57.1083 6.21129C57.1083 6.21129 50.3699 6.13313 25.7461 6.93701C1.12347 7.74089 1.50137 16.6818 1.50137 28.702L1.50649 29.1466C2.07639 29.4654 2.66705 29.744 3.27319 29.9709C3.27887 18.5951 3.76975 10.2483 27.5189 9.47307C52.1417 8.66919 58.8823 8.74735 58.8823 8.74735C68.299 8.74735 74.7816 11.8804 78.818 16.7686C75.1018 10.443 68.0661 6.21129 57.1083 6.21129" fill="url(#paint7_linear_53845_406)"/>
<path d="M48.5321 45.1321V58.8138C48.5321 63.5511 43.7612 65.2524 37.8785 65.2524C31.9955 65.2524 27.2272 63.5511 27.2272 58.8138V37.9893" fill="url(#paint8_linear_53845_406)"/>
<path d="M26.4402 37.9894V58.8139C26.4402 63.4482 30.5034 66 37.8785 66C45.2558 66 49.3194 63.4482 49.3194 58.8139V45.1322C49.3194 44.7191 48.9661 44.3839 48.5321 44.3839C48.098 44.3839 47.7451 44.7191 47.7451 45.1322V58.8139C47.7451 63.517 42.3801 64.5039 37.8785 64.5039C33.379 64.5039 28.0143 63.517 28.0143 58.8139V37.9894C28.0143 37.5763 27.6617 37.2415 27.2272 37.2415C26.7926 37.2415 26.4402 37.5763 26.4402 37.9894" fill="#363254"/>
<path d="M33.928 60.1408C33.928 61.9229 32.4239 63.3682 30.5667 63.3682C28.7096 63.3682 27.205 61.9229 27.205 60.1408C27.205 58.3566 28.7096 54.3293 30.5667 54.3293C32.4239 54.3293 33.928 58.3566 33.928 60.1408Z" fill="#8B9DD7"/>
<path d="M27.4675 60.1408C27.4675 58.4036 28.966 54.5778 30.5667 54.5778C32.1675 54.5778 33.666 58.4036 33.666 60.1408C33.666 61.7837 32.2767 63.119 30.5667 63.119C28.8588 63.119 27.4675 61.7837 27.4675 60.1408ZM26.9423 60.1408C26.9423 62.0576 28.5682 63.6178 30.5667 63.6178C32.5655 63.6178 34.1911 62.0576 34.1911 60.1408C34.1911 58.3333 32.6616 54.0784 30.5667 54.0784C28.4737 54.0784 26.9423 58.3333 26.9423 60.1408Z" fill="#363254"/>
<path d="M27.7791 60.3542C27.7791 58.7583 29.6611 55.8913 31.0382 55.8913C31.1693 55.8913 31.2967 55.9321 31.4238 55.9945C31.0769 55.4904 30.6854 55.1548 30.2696 55.1548C28.892 55.1548 27.7791 58.7604 27.7791 60.3542Z" fill="#A6BDE6"/>
<path d="M36.6667 60.393C36.6667 62.7434 35.1087 64.656 33.1867 64.656C31.2618 64.656 29.7039 62.7434 29.7039 60.393C29.7039 58.0395 31.2618 52.7246 33.1867 52.7246C35.1087 52.7246 36.6667 58.0395 36.6667 60.393Z" fill="#8B9DD7"/>
<path d="M29.966 60.3933C29.966 58.0753 31.5239 52.9737 33.1867 52.9737C34.8491 52.9737 36.4047 58.0753 36.4047 60.3933C36.4047 62.6056 34.9614 64.4062 33.1867 64.4062C31.4115 64.4062 29.966 62.6056 29.966 60.3933ZM29.4414 60.3933C29.4414 62.881 31.1218 64.9057 33.1867 64.9057C35.2507 64.9057 36.9293 62.881 36.9293 60.3933C36.9293 58.0308 35.3488 52.4761 33.1867 52.4761C31.0238 52.4761 29.4414 58.0308 29.4414 60.3933" fill="#363254"/>
<path d="M30.6425 60.8194C30.6425 58.553 32.5264 54.4798 33.9018 54.4798C34.0329 54.4798 34.1621 54.5386 34.2872 54.6254C33.9428 53.9061 33.5488 53.4321 33.1333 53.4321C31.7555 53.4321 30.6425 58.5562 30.6425 60.8194" fill="#A6BDE6"/>
<path d="M38.4934 61.6589C38.4934 63.3228 37.372 64.6714 35.9883 64.6714C34.605 64.6714 33.4835 63.3228 33.4835 61.6589C33.4835 59.9868 34.605 56.2263 35.9883 56.2263C37.372 56.2263 38.4934 59.9868 38.4934 61.6589Z" fill="#8B9DD7"/>
<path d="M33.746 61.659C33.746 59.8569 34.9354 56.4757 35.9883 56.4757C37.0439 56.4757 38.2311 59.8569 38.2311 61.659C38.2311 63.1836 37.2259 64.4216 35.9883 64.4216C34.7522 64.4216 33.746 63.1836 33.746 61.659ZM33.2211 61.659C33.2211 63.4578 34.4635 64.921 35.9883 64.921C37.5158 64.921 38.7554 63.4578 38.7554 61.659C38.7554 60.0207 37.653 55.9773 35.9883 55.9773C34.3244 55.9773 33.2211 60.0207 33.2211 61.659" fill="#363254"/>
<path d="M34.5372 60.6654C34.4103 59.4771 35.5843 57.5072 36.499 57.3649C36.5852 57.3512 36.6729 57.3713 36.7613 57.4039C36.4928 57.0615 36.1893 56.7901 35.9294 56.898C35.0229 57.2817 34.4103 59.4811 34.5372 60.6654" fill="#A6BDE6"/>
<path d="M81.1308 35.7299V58.2787C81.1308 63.0156 76.3603 64.7158 70.4775 64.7158C64.5941 64.7158 59.8265 63.0156 59.8265 58.2787V45.323" fill="url(#paint9_linear_53845_406)"/>
<path d="M80.3427 35.73V58.2788C80.3427 62.9813 74.9777 63.9676 70.4775 63.9676C65.9784 63.9676 60.6138 62.9813 60.6138 58.2788V45.3231C60.6138 44.9101 60.2612 44.5745 59.8265 44.5745C59.392 44.5745 59.0395 44.9101 59.0395 45.3231V58.2788C59.0395 62.9124 63.1016 65.465 70.4775 65.465C77.8542 65.465 81.917 62.9124 81.917 58.2788V35.73C81.917 35.3166 81.5652 34.9824 81.1308 34.9824C80.6957 34.9824 80.3427 35.3166 80.3427 35.73" fill="#363254"/>
<path d="M66.5274 59.6056C66.5274 61.3866 65.0226 62.8316 63.1657 62.8316C61.3087 62.8316 59.8043 61.3866 59.8043 59.6056C59.8043 57.8215 61.3087 53.7935 63.1657 53.7935C65.0226 53.7935 66.5274 57.8215 66.5274 59.6056Z" fill="#8B9DD7"/>
<path d="M60.0669 59.6053C60.0669 57.8674 61.5648 54.0434 63.1657 54.0434C64.7672 54.0434 66.2655 57.8674 66.2655 59.6053C66.2655 61.2468 64.8746 62.5831 63.1657 62.5831C61.4571 62.5831 60.0669 61.2468 60.0669 59.6053V59.6053ZM59.5419 59.6053C59.5419 61.5221 61.1672 63.0818 63.1657 63.0818C65.1642 63.0818 66.7898 61.5221 66.7898 59.6053C66.7898 57.7975 65.2599 53.5439 63.1657 53.5439C61.0722 53.5439 59.5419 57.7975 59.5419 59.6053Z" fill="#363254"/>
<path d="M60.3781 59.8179C60.3781 58.2227 62.2598 55.3561 63.6372 55.3561C63.7686 55.3561 63.8956 55.3966 64.0229 55.4583C63.6765 54.9541 63.285 54.6189 62.8688 54.6189C61.4914 54.6189 60.3781 58.2249 60.3781 59.8179" fill="#A6BDE6"/>
<path d="M69.2663 59.8569C69.2663 62.2087 67.7087 64.1208 65.7852 64.1208C63.8602 64.1208 62.3026 62.2087 62.3026 59.8569C62.3026 57.5034 63.8602 52.1899 65.7852 52.1899C67.7087 52.1899 69.2663 57.5034 69.2663 59.8569Z" fill="#8B9DD7"/>
<path d="M62.565 59.8568C62.565 57.5388 64.1219 52.4387 65.7853 52.4387C67.4483 52.4387 69.0037 57.5388 69.0037 59.8568C69.0037 62.0698 67.5597 63.8712 65.7853 63.8712C64.0091 63.8712 62.565 62.0698 62.565 59.8568ZM62.0404 59.8568C62.0404 62.3452 63.7202 64.3693 65.7853 64.3693C67.8493 64.3693 69.5283 62.3452 69.5283 59.8568C69.5283 57.4954 67.9482 51.9392 65.7853 51.9392C63.6212 51.9392 62.0404 57.4954 62.0404 59.8568Z" fill="#363254"/>
<path d="M63.2417 60.2843C63.2417 58.0182 65.1256 53.945 66.5005 53.945C66.6322 53.945 66.761 54.0035 66.8865 54.0899C66.5423 53.3706 66.1487 52.8977 65.7321 52.8977C64.3546 52.8977 63.2417 58.02 63.2417 60.2843Z" fill="#A6BDE6"/>
<path d="M71.092 61.1228C71.092 62.7875 69.9711 64.1361 68.5878 64.1361C67.2045 64.1361 66.0828 62.7875 66.0828 61.1228C66.0828 59.4515 67.2045 55.6899 68.5878 55.6899C69.9711 55.6899 71.092 59.4515 71.092 61.1228Z" fill="#8B9DD7"/>
<path d="M66.3448 61.1228C66.3448 59.3211 67.5331 55.9406 68.5878 55.9406C69.6422 55.9406 70.8305 59.3211 70.8305 61.1228C70.8305 62.647 69.8234 63.8866 68.5878 63.8866C67.3515 63.8866 66.3448 62.647 66.3448 61.1228ZM65.8202 61.1228C65.8202 62.9224 67.0612 64.3849 68.5878 64.3849C70.1137 64.3849 71.3544 62.9224 71.3544 61.1228C71.3544 59.4853 70.252 55.4412 68.5878 55.4412C66.9229 55.4412 65.8202 59.4853 65.8202 61.1228" fill="#363254"/>
<path d="M67.1364 60.1301C67.0098 58.9415 68.1835 56.9723 69.0982 56.8296C69.1841 56.8163 69.2721 56.835 69.3605 56.8687C69.0913 56.5255 68.7886 56.2559 68.5285 56.3617C67.6218 56.7453 67.0098 58.9454 67.1364 60.1301" fill="#A6BDE6"/>
<path d="M7.46089 16.0663C7.18293 16.4384 7.28098 16.9501 7.68163 17.2104C8.08071 17.4704 8.63085 17.3775 8.90853 17.0064C10.4913 14.887 14.0513 14.3029 15.7438 14.9049C16.0811 15.0254 16.5073 14.973 16.6936 14.7855C16.8798 14.6005 16.758 14.3516 16.42 14.2315C14.1026 13.4061 9.55647 13.2566 7.46089 16.0663" fill="#363254"/>
<path d="M14.3209 25.3828C12.8592 25.6865 11.5705 24.8805 11.4437 23.5832C11.3173 22.2838 12.4009 20.9855 13.863 20.6789C15.3263 20.3741 16.6146 21.178 16.7424 22.4781C16.8679 23.7772 15.7846 25.0752 14.3209 25.3828V25.3828ZM17.3435 22.305C17.197 20.7911 15.675 19.8596 13.9406 20.2193C12.2083 20.5807 10.9214 22.0966 11.0669 23.6083C11.2128 25.1193 12.7353 26.0533 14.4677 25.6951C16.202 25.3326 17.4894 23.817 17.3435 22.305" fill="#363254"/>
<path d="M16.6499 22.5827C16.7609 23.7247 15.8131 24.8685 14.5332 25.1352C13.248 25.4049 12.1211 24.6942 12.0066 23.5522C11.8964 22.4102 12.8444 21.2675 14.1249 21.0004C15.4088 20.7315 16.5388 21.4396 16.6499 22.5827Z" fill="#FCFCFC"/>
<path d="M16.4622 22.5944C16.1156 21.7242 15.1951 21.2197 14.4144 21.4621C13.996 21.5897 13.7093 21.9085 13.5757 22.3069L14.6669 22.839L13.6644 23.5521C14.0359 24.3729 14.9147 24.844 15.673 24.6099C16.4568 24.3646 16.8085 23.4643 16.4622 22.5944Z" fill="#363254"/>
<path d="M15.6589 22.2215C15.8531 22.1939 16.0818 22.4255 16.1649 22.7471C16.2488 23.0648 16.1585 23.3473 15.96 23.3775C15.7636 23.4065 15.5353 23.1731 15.4512 22.8525C15.3696 22.5352 15.4617 22.2534 15.6589 22.2215Z" fill="white"/>
<path d="M12.4845 20.91C11.1163 21.9505 10.6838 23.4618 11.6082 24.3184C11.528 24.2847 11.7025 24.5048 11.6286 24.464C10.1732 23.6687 9.93001 21.3072 11.2699 19.9178C12.4201 18.7239 15.8716 17.8386 15.846 18.299C15.7036 18.8271 14.6932 19.4976 13.4385 20.2262C13.0346 20.4524 12.7434 20.7135 12.4845 20.91" fill="#363254"/>
<path d="M34.9652 35.576C34.8947 35.9303 35.1378 36.2211 35.5046 36.2211H37.6126C37.98 36.2211 38.3369 35.9303 38.4079 35.576L38.9693 32.7248C39.0399 32.3698 39.396 32.0798 39.7639 32.0798H42.0451C43.3461 32.0798 44.4165 31.945 45.2559 31.675C46.097 31.4064 46.8596 30.9539 47.5483 30.3196C48.1239 29.7976 48.5918 29.2214 48.9484 28.59C49.3049 27.9607 49.5596 27.2651 49.7088 26.5042C50.0733 24.6584 49.7146 23.2851 48.8858 22.1883C47.8449 20.815 45.1886 20.7423 45.1886 20.7423C44.8255 20.6885 44.2288 20.6426 43.8617 20.6426H38.5763C38.2096 20.6426 37.8527 20.9337 37.7817 21.2891L34.9652 35.576ZM43.2242 23.1012C44.5329 23.1012 45.4036 23.3396 45.8398 23.8154C46.2749 24.2912 46.3794 25.1087 46.152 26.2658C45.9129 27.4716 45.4545 28.3332 44.7756 28.8485C44.0967 29.3634 42.3387 29.5498 42.3387 29.5498C41.973 29.5892 41.3742 29.6212 41.0078 29.6212H40.2489C39.8821 29.6212 39.638 29.3304 39.7086 28.9758L40.7397 23.7473C40.8095 23.3923 41.1672 23.1012 41.5335 23.1012H43.2242" fill="#363254"/>
<path d="M34.9652 35.576C34.8947 35.9303 35.1378 36.2211 35.5046 36.2211H37.6126C37.98 36.2211 38.3369 35.9303 38.4079 35.576L38.9693 32.7248C39.0399 32.3698 39.396 32.0798 39.7639 32.0798H42.0451C43.3461 32.0798 44.4165 31.945 45.2559 31.675C46.097 31.4064 46.8596 30.9539 47.5483 30.3196C48.1239 29.7976 48.5918 29.2214 48.9484 28.59C49.3049 27.9607 49.5596 27.2651 49.7088 26.5042C50.0733 24.6584 49.7146 23.2851 48.8858 22.1883C47.8449 20.815 45.1886 20.7423 45.1886 20.7423C44.8255 20.6885 44.2288 20.6426 43.8617 20.6426H38.5763C38.2096 20.6426 37.8527 20.9337 37.7817 21.2891L34.9652 35.576ZM43.2242 23.1012C44.5329 23.1012 45.4036 23.3396 45.8398 23.8154C46.2749 24.2912 46.3794 25.1087 46.152 26.2658C45.9129 27.4716 45.4545 28.3332 44.7756 28.8485C44.0967 29.3634 42.3387 29.5498 42.3387 29.5498C41.973 29.5892 41.3742 29.6212 41.0078 29.6212H40.2489C39.8821 29.6212 39.638 29.3304 39.7086 28.9758L40.7397 23.7473C40.8095 23.3923 41.1672 23.1012 41.5335 23.1012H43.2242Z" stroke="white" stroke-width="5.29133"/>
<path d="M53.0294 17.1471C53.0992 16.7929 53.4561 16.5024 53.8229 16.5024H55.9043C56.2718 16.5024 56.5145 16.7929 56.4439 17.1471L55.8821 19.9984C55.8119 20.3537 56.0564 20.6427 56.4224 20.6427H58.1299C58.4966 20.6427 59.0958 20.6739 59.4604 20.7108C59.4604 20.7108 61.9504 20.7395 62.7585 21.6309C63.4167 22.3566 63.7026 23.3562 63.4119 24.8302L62.1109 31.4345C62.0414 31.7894 61.6834 32.0799 61.3163 32.0799H59.1813C58.8142 32.0799 58.5708 31.7894 58.6411 31.4345L59.7464 25.832C59.8162 25.4774 59.8948 24.8919 59.9217 24.5305C59.9217 24.5305 59.9708 23.8675 59.702 23.5832C59.4342 23.2978 58.8623 23.1558 57.9883 23.1558H55.9262C55.5587 23.1558 55.2029 23.4455 55.1316 23.8005L53.6279 31.4345C53.5576 31.7894 53.2007 32.0799 52.8336 32.0799H50.7518C50.3847 32.0799 50.142 31.7894 50.2119 31.4345L53.0294 17.1471" fill="#363254"/>
<path d="M53.0294 17.1471C53.0992 16.7929 53.4561 16.5024 53.8229 16.5024H55.9043C56.2718 16.5024 56.5145 16.7929 56.4439 17.1471L55.8821 19.9984C55.8119 20.3537 56.0564 20.6427 56.4224 20.6427H58.1299C58.4966 20.6427 59.0958 20.6739 59.4604 20.7108C59.4604 20.7108 61.9504 20.7395 62.7585 21.6309C63.4167 22.3566 63.7026 23.3562 63.4119 24.8302L62.1109 31.4345C62.0414 31.7894 61.6834 32.0799 61.3163 32.0799H59.1813C58.8142 32.0799 58.5708 31.7894 58.6411 31.4345L59.7464 25.832C59.8162 25.4774 59.8948 24.8919 59.9217 24.5305C59.9217 24.5305 59.9708 23.8675 59.702 23.5832C59.4342 23.2978 58.8623 23.1558 57.9883 23.1558H55.9262C55.5587 23.1558 55.2029 23.4455 55.1316 23.8005L53.6279 31.4345C53.5576 31.7894 53.2007 32.0799 52.8336 32.0799H50.7518C50.3847 32.0799 50.142 31.7894 50.2119 31.4345L53.0294 17.1471Z" stroke="white" stroke-width="5.29133"/>
<path d="M63.5873 35.576C63.5167 35.9303 63.7601 36.2211 64.1276 36.2211H66.2353C66.6013 36.2211 66.96 35.9303 67.0295 35.576L67.5912 32.7248C67.6615 32.3698 68.0191 32.0798 68.3851 32.0798H70.6674C71.9681 32.0798 73.0378 31.945 73.8793 31.675C74.7179 31.4064 75.482 30.9539 76.1696 30.3196C76.747 29.7976 77.2127 29.2214 77.5703 28.59C77.9272 27.9607 78.1808 27.2651 78.3311 26.5042C78.6953 24.6584 78.3656 23.264 77.5074 22.1883C76.4425 20.8531 73.8098 20.7423 73.8098 20.7423C73.4467 20.6885 72.8497 20.6426 72.4829 20.6426H67.1976C66.8312 20.6426 66.4732 20.9337 66.4037 21.2891L63.5873 35.576ZM71.8473 23.1012C73.1545 23.1012 74.0259 23.3396 74.4629 23.8154C74.8969 24.2912 75.001 25.1087 74.7732 26.2658C74.5345 27.4716 74.0779 28.3332 73.3979 28.8485C72.7179 29.3634 70.9599 29.5498 70.9599 29.5498C70.5957 29.5892 69.9972 29.6212 69.6294 29.6212H68.8697C68.5023 29.6212 68.2607 29.3304 68.3302 28.9758L69.3605 23.7473C69.4311 23.3923 69.7884 23.1012 70.1551 23.1012H71.8473" fill="#363254"/>
<path d="M63.5873 35.576C63.5167 35.9303 63.7601 36.2211 64.1276 36.2211H66.2353C66.6013 36.2211 66.96 35.9303 67.0295 35.576L67.5912 32.7248C67.6615 32.3698 68.0191 32.0798 68.3851 32.0798H70.6674C71.9681 32.0798 73.0378 31.945 73.8793 31.675C74.7179 31.4064 75.482 30.9539 76.1696 30.3196C76.747 29.7976 77.2127 29.2214 77.5703 28.59C77.9272 27.9607 78.1808 27.2651 78.3311 26.5042C78.6953 24.6584 78.3656 23.264 77.5074 22.1883C76.4425 20.8531 73.8098 20.7423 73.8098 20.7423C73.4467 20.6885 72.8497 20.6426 72.4829 20.6426H67.1976C66.8312 20.6426 66.4732 20.9337 66.4037 21.2891L63.5873 35.576ZM71.8473 23.1012C73.1545 23.1012 74.0259 23.3396 74.4629 23.8154C74.8969 24.2912 75.001 25.1087 74.7732 26.2658C74.5345 27.4716 74.0779 28.3332 73.3979 28.8485C72.7179 29.3634 70.9599 29.5498 70.9599 29.5498C70.5957 29.5892 69.9972 29.6212 69.6294 29.6212H68.8697C68.5023 29.6212 68.2607 29.3304 68.3302 28.9758L69.3605 23.7473C69.4311 23.3923 69.7884 23.1012 70.1551 23.1012H71.8473Z" stroke="white" stroke-width="5.29133"/>
<path d="M34.9652 35.576C34.8947 35.9303 35.1378 36.2211 35.5046 36.2211H37.6126C37.98 36.2211 38.3369 35.9303 38.4079 35.576L38.9693 32.7248C39.0399 32.3698 39.396 32.0798 39.7639 32.0798H42.0451C43.3461 32.0798 44.4165 31.945 45.2559 31.675C46.097 31.4064 46.8596 30.9539 47.5483 30.3196C48.1239 29.7976 48.5918 29.2214 48.9484 28.59C49.3049 27.9607 49.5596 27.2651 49.7088 26.5042C50.0733 24.6584 49.7146 23.2851 48.8858 22.1883C47.8449 20.815 45.1886 20.7423 45.1886 20.7423C44.8255 20.6885 44.2288 20.6426 43.8617 20.6426H38.5763C38.2096 20.6426 37.8527 20.9337 37.7817 21.2891L34.9652 35.576ZM43.2242 23.1012C44.5329 23.1012 45.4036 23.3396 45.8398 23.8154C46.2749 24.2912 46.3794 25.1087 46.152 26.2658C45.9129 27.4716 45.4545 28.3332 44.7756 28.8485C44.0967 29.3634 42.3387 29.5498 42.3387 29.5498C41.973 29.5892 41.3742 29.6212 41.0078 29.6212H40.2489C39.8821 29.6212 39.638 29.3304 39.7086 28.9758L40.7397 23.7473C40.8095 23.3923 41.1672 23.1012 41.5335 23.1012H43.2242" fill="#363254"/>
<path d="M53.0294 17.1471C53.0992 16.7929 53.4561 16.5024 53.8229 16.5024H55.9043C56.2718 16.5024 56.5145 16.7929 56.4439 17.1471L55.8821 19.9984C55.8119 20.3537 56.0564 20.6427 56.4224 20.6427H58.1299C58.4966 20.6427 59.0958 20.6739 59.4604 20.7108C59.4604 20.7108 61.9504 20.7395 62.7585 21.6309C63.4167 22.3566 63.7026 23.3562 63.4119 24.8302L62.1109 31.4345C62.0414 31.7894 61.6834 32.0799 61.3163 32.0799H59.1813C58.8142 32.0799 58.5708 31.7894 58.6411 31.4345L59.7464 25.832C59.8162 25.4774 59.8948 24.8919 59.9217 24.5305C59.9217 24.5305 59.9708 23.8675 59.702 23.5832C59.4342 23.2978 58.8623 23.1558 57.9883 23.1558H55.9262C55.5587 23.1558 55.2029 23.4455 55.1316 23.8005L53.6279 31.4345C53.5576 31.7894 53.2007 32.0799 52.8336 32.0799H50.7518C50.3847 32.0799 50.142 31.7894 50.2119 31.4345L53.0294 17.1471" fill="#363254"/>
<path d="M63.5873 35.576C63.5167 35.9303 63.7601 36.2211 64.1276 36.2211H66.2353C66.6013 36.2211 66.96 35.9303 67.0295 35.576L67.5912 32.7248C67.6615 32.3698 68.0191 32.0798 68.3851 32.0798H70.6674C71.9681 32.0798 73.0378 31.945 73.8793 31.675C74.7179 31.4064 75.482 30.9539 76.1696 30.3196C76.747 29.7976 77.2127 29.2214 77.5703 28.59C77.9272 27.9607 78.1808 27.2651 78.3311 26.5042C78.6953 24.6584 78.3656 23.264 77.5074 22.1883C76.4425 20.8531 73.8098 20.7423 73.8098 20.7423C73.4467 20.6885 72.8497 20.6426 72.4829 20.6426H67.1976C66.8312 20.6426 66.4732 20.9337 66.4037 21.2891L63.5873 35.576ZM71.8473 23.1012C73.1545 23.1012 74.0259 23.3396 74.4629 23.8154C74.8969 24.2912 75.001 25.1087 74.7732 26.2658C74.5345 27.4716 74.0779 28.3332 73.3979 28.8485C72.7179 29.3634 70.9599 29.5498 70.9599 29.5498C70.5957 29.5892 69.9972 29.6212 69.6294 29.6212H68.8697C68.5023 29.6212 68.2607 29.3304 68.3302 28.9758L69.3605 23.7473C69.4311 23.3923 69.7884 23.1012 70.1551 23.1012H71.8473" fill="#363254"/>
<path d="M20.8066 7.68882C20.8066 7.68882 27.0472 3.46038 30.9889 2.0111C32.2453 1.54892 41.3098 -0.811086 42.7793 14.614C43.5826 23.0597 42.1361 28.8931 35.1087 29.9497C30.9033 30.5829 31.5544 33.6719 31.5544 33.6719" fill="url(#paint10_linear_53845_406)"/>
<path d="M30.7041 1.31269C26.7165 2.77954 20.6082 6.90364 20.3494 7.07897C19.9961 7.31849 19.9133 7.78604 20.166 8.12201C20.4179 8.45833 20.9101 8.5365 21.2636 8.29662C21.3252 8.25611 27.4695 4.10691 31.2715 2.70782C31.3904 2.6648 34.1886 1.66658 36.8744 3.25175C39.6704 4.9029 41.4408 8.85418 41.9967 14.6811C42.8819 23.9935 40.7852 28.3377 34.9861 29.2108C33.342 29.4575 32.1454 30.0792 31.4278 31.0606C30.4857 32.3453 30.7697 33.7591 30.783 33.8189C30.8684 34.2209 31.278 34.4801 31.7021 34.403C32.1268 34.3263 32.4055 33.9344 32.3276 33.5303C32.3257 33.5231 32.1691 32.6526 32.7312 31.8996C33.1969 31.2761 34.038 30.868 35.2319 30.6877C43.8537 29.3911 44.2142 21.3799 43.5648 14.5459C42.9539 8.14244 40.9813 3.91472 37.7053 1.98104C34.4164 0.0394591 31.0752 1.17644 30.7041 1.31269" fill="#363254"/>
<path d="M27.1904 6.5698C34.2564 2.21515 38.179 4.44177 38.179 4.44177C35.1067 1.67337 31.6506 2.59091 30.8863 2.87345C26.958 4.32273 19.3717 9.67883 19.3717 9.67883C19.3717 9.67883 18.3458 11.472 20.39 11.0829C20.39 11.0829 24.8363 8.02159 27.1904 6.5698" fill="url(#paint11_linear_53845_406)"/>
<path d="M24.6407 27.119C24.5793 30.6543 23.3916 33.8738 21.5391 35.516C20.6985 36.2621 19.761 36.6314 18.8253 36.5862C18.5366 36.5708 18.2906 36.782 18.274 37.057C18.2602 37.3331 18.4822 37.5669 18.7718 37.5812C19.9977 37.6422 21.2016 37.1804 22.2555 36.2456C24.3087 34.4242 25.6244 30.9333 25.6898 27.1337C25.6955 26.8597 25.465 26.632 25.1748 26.6277C24.8846 26.6238 24.6459 26.8436 24.6407 27.119" fill="#363254"/>
<path d="M26.9136 24.5942C26.5184 25.4873 25.8277 26.0564 25.017 26.1514C24.2267 26.2432 23.4237 25.8789 22.8683 25.1758C22.6954 24.956 22.3652 24.9108 22.1337 25.0764C21.9022 25.2414 21.8548 25.554 22.0292 25.7738C22.813 26.7674 23.9785 27.2783 25.1458 27.1421C26.34 27.0001 27.336 26.2123 27.8816 24.98C27.9935 24.7258 27.8669 24.4357 27.6008 24.3278C27.333 24.2213 27.0268 24.3407 26.9136 24.5942" fill="#363254"/>
<defs>
<linearGradient id="paint0_linear_53845_406" x1="38.6498" y1="23.8858" x2="70.0013" y2="47.594" gradientUnits="userSpaceOnUse">
<stop stop-color="#8C9BD6"/>
<stop offset="1" stop-color="#505E9B"/>
</linearGradient>
<linearGradient id="paint1_linear_53845_406" x1="59.3713" y1="-2.87787" x2="90.9835" y2="21.0274" gradientUnits="userSpaceOnUse">
<stop stop-color="#808FD0"/>
<stop offset="1" stop-color="#505E9B"/>
</linearGradient>
<linearGradient id="paint2_linear_53845_406" x1="24.3138" y1="42.2743" x2="55.5279" y2="65.8785" gradientUnits="userSpaceOnUse">
<stop stop-color="#8C9BD6"/>
<stop offset="1" stop-color="#505E9B"/>
</linearGradient>
<linearGradient id="paint3_linear_53845_406" x1="36.1828" y1="27.2931" x2="67.3965" y2="50.8972" gradientUnits="userSpaceOnUse">
<stop stop-color="#8C9BD6"/>
<stop offset="1" stop-color="#505E9B"/>
</linearGradient>
<linearGradient id="paint4_linear_53845_406" x1="37.8159" y1="24.5653" x2="68.1151" y2="47.4778" gradientUnits="userSpaceOnUse">
<stop stop-color="#808FD0"/>
<stop offset="1" stop-color="#505E9B"/>
</linearGradient>
<linearGradient id="paint5_linear_53845_406" x1="32.5491" y1="32.0094" x2="64.0591" y2="55.8375" gradientUnits="userSpaceOnUse">
<stop stop-color="#8C9BD6"/>
<stop offset="1" stop-color="#505E9B"/>
</linearGradient>
<linearGradient id="paint6_linear_53845_406" x1="-11.0664" y1="24.2379" x2="9.601" y2="54.8026" gradientUnits="userSpaceOnUse">
<stop stop-color="#FAFAFD"/>
<stop offset="1" stop-color="#8892D2"/>
</linearGradient>
<linearGradient id="paint7_linear_53845_406" x1="23.6476" y1="-0.815311" x2="47.7298" y2="34.7995" gradientUnits="userSpaceOnUse">
<stop stop-color="#FAFAFD"/>
<stop offset="1" stop-color="#8892D2"/>
</linearGradient>
<linearGradient id="paint8_linear_53845_406" x1="23.8135" y1="43.0456" x2="55.0113" y2="66.6376" gradientUnits="userSpaceOnUse">
<stop stop-color="#8C9BD6"/>
<stop offset="1" stop-color="#505E9B"/>
</linearGradient>
<linearGradient id="paint9_linear_53845_406" x1="38.0779" y1="24.6111" x2="69.3841" y2="48.2851" gradientUnits="userSpaceOnUse">
<stop stop-color="#8C9BD6"/>
<stop offset="1" stop-color="#505E9B"/>
</linearGradient>
<linearGradient id="paint10_linear_53845_406" x1="39.9665" y1="22.1934" x2="71.2247" y2="45.8311" gradientUnits="userSpaceOnUse">
<stop stop-color="#8C9BD6"/>
<stop offset="1" stop-color="#505E9B"/>
</linearGradient>
<linearGradient id="paint11_linear_53845_406" x1="23.0522" y1="-0.442466" x2="47.6645" y2="35.9563" gradientUnits="userSpaceOnUse">
<stop stop-color="#FAFAFD"/>
<stop offset="1" stop-color="#8892D2"/>
</linearGradient>
</defs>
</svg>
