<svg width="82" height="74" viewBox="0 0 82 74" fill="none" xmlns="http://www.w3.org/2000/svg">
<path d="M0.106873 36.8593C0.106873 43.0737 6.14594 48.8751 15.667 52.1451C13.7657 61.7629 15.3263 69.5149 20.5386 72.5355C25.8964 75.6401 33.8781 73.4911 41.4538 66.837C48.8384 73.2225 56.3019 75.7355 61.5094 72.7063C66.8619 69.5927 68.49 61.3149 66.5362 51.3968C76.4529 48.1023 82 43.1555 82 36.8593C82 30.789 75.9497 25.5374 66.5571 22.2883C68.6605 11.9603 66.8782 4.39645 61.4501 1.25109C56.2168 -1.78124 48.6667 0.861742 41.1735 7.41442C33.3781 0.45927 25.9025 -1.66422 20.4797 1.4903C15.2515 4.53125 13.7596 12.4241 15.667 22.22C6.46743 25.443 0.106873 30.8133 0.106873 36.8593Z" fill="white"/>
<path d="M64.5677 25.515C63.8132 25.254 63.0315 25.0071 62.2265 24.7736C62.3588 24.2311 62.4802 23.6955 62.5882 23.1691C64.3604 14.5248 63.2017 7.56091 59.2449 5.2681C55.4508 3.0696 49.2458 5.36189 42.9792 10.8419C42.3765 11.3689 41.7722 11.9268 41.1682 12.5115C40.7657 12.1247 40.3639 11.7508 39.9631 11.3932C33.3954 5.5336 26.8124 3.06427 22.8594 5.36371C19.069 7.56858 17.9465 14.1153 19.5417 22.3076C19.6958 23.0988 19.8759 23.9069 20.0795 24.7285C19.1478 24.9942 18.2483 25.2776 17.3877 25.579C9.68783 28.2764 4.77032 32.5041 4.77032 36.8892C4.77032 41.4183 10.0493 45.961 18.0693 48.7154C18.7022 48.9328 19.3589 49.1383 20.0357 49.3334C19.816 50.222 19.625 51.0928 19.4646 51.9421C17.9435 59.9922 19.1314 66.3842 22.9117 68.5752C26.8165 70.8378 33.3698 68.5121 39.7511 62.9071C40.2554 62.4641 40.7616 61.9942 41.2687 61.5018C41.9259 62.1377 42.5821 62.7396 43.2348 63.3042C49.4158 68.6488 55.5206 70.807 59.2974 68.6099C63.1983 66.3408 64.4661 59.4742 62.8202 51.1199C62.6945 50.4818 62.5482 49.83 62.3839 49.1666C62.8441 49.0298 63.2959 48.8887 63.7365 48.742C72.0741 45.9662 77.4988 41.4788 77.4988 36.8892C77.4988 32.4882 72.4227 28.2321 64.5677 25.515Z" fill="#53C1DE"/>
<path d="M62.7594 45.7788C62.3617 45.9111 61.9537 46.0389 61.5379 46.1629C60.6174 43.2349 59.3752 40.1214 57.855 36.9046C59.3057 33.7645 60.4999 30.6908 61.3945 27.7818C62.1385 27.9981 62.8606 28.2263 63.5565 28.4671C70.2866 30.7951 74.3919 34.2372 74.3919 36.8894C74.3919 39.7145 69.9583 43.3819 62.7594 45.7788ZM59.7723 51.7263C60.5001 55.4205 60.6041 58.7605 60.122 61.3715C59.6888 63.7176 58.8177 65.2818 57.7407 65.9083C55.4487 67.2414 50.5472 65.5086 45.2611 60.9378C44.6552 60.4138 44.0448 59.8543 43.4324 59.2622C45.4817 57.0101 47.5299 54.392 49.5288 51.4843C53.0447 51.1708 56.3664 50.6582 59.3787 49.9585C59.527 50.5599 59.6588 51.1497 59.7723 51.7263ZM29.5652 65.6779C27.3258 66.4726 25.5423 66.4953 24.4642 65.8707C22.1701 64.5411 21.2164 59.4089 22.5173 52.5245C22.6663 51.7361 22.8437 50.9262 23.0481 50.0984C26.0274 50.7604 29.3248 51.2367 32.8491 51.5238C34.8614 54.3691 36.9687 56.9843 39.0923 59.2743C38.6283 59.7244 38.1662 60.1529 37.7066 60.5566C34.8849 63.0351 32.0572 64.7935 29.5652 65.6779ZM19.0742 45.7615C15.5279 44.5435 12.5992 42.9606 10.5918 41.2332C8.78792 39.681 7.8772 38.1399 7.8772 36.8894C7.8772 34.2284 11.8255 30.8341 18.4105 28.5272C19.2095 28.2472 20.0459 27.9834 20.9139 27.7356C21.824 30.7103 23.0178 33.8204 24.4585 36.9654C22.9992 40.1571 21.7884 43.3167 20.8694 46.3263C20.2506 46.1476 19.6511 45.9595 19.0742 45.7615ZM22.5909 21.7082C21.2241 14.6893 22.1318 9.39445 24.4161 8.0658C26.8492 6.65039 32.2295 8.66847 37.9002 13.728C38.2626 14.0514 38.6265 14.3898 38.9915 14.74C36.8784 17.0199 34.7904 19.6156 32.7959 22.4441C29.3754 22.7626 26.1012 23.2744 23.0908 23.9596C22.9016 23.1946 22.7339 22.443 22.5909 21.7082ZM53.9626 29.4921C53.243 28.2431 52.5042 27.0236 51.751 25.8373C54.0715 26.1321 56.2948 26.5234 58.3826 27.0022C57.7558 29.0208 56.9745 31.1314 56.0549 33.295C55.3952 32.0365 54.6974 30.7675 53.9626 29.4921ZM41.1693 16.9712C42.6024 18.5312 44.0375 20.273 45.4491 22.1628C44.0266 22.0953 42.5866 22.0602 41.1346 22.0602C39.6964 22.0602 38.2669 22.0945 36.8533 22.1609C38.2663 20.2886 39.7138 18.5492 41.1693 16.9712ZM28.294 29.5137C27.5752 30.7662 26.8903 32.0283 26.241 33.2927C25.3362 31.1366 24.5622 29.0164 23.93 26.9692C26.005 26.5026 28.2178 26.1211 30.5235 25.8319C29.7597 27.029 29.0148 28.2575 28.294 29.5134V29.5137ZM30.5899 48.1697C28.2077 47.9026 25.9616 47.5407 23.8871 47.087C24.5295 45.0032 25.3206 42.8378 26.2445 40.6352C26.8955 41.8987 27.5831 43.1613 28.3063 44.4166H28.3065C29.0432 45.6954 29.8065 46.9481 30.5899 48.1697ZM41.2553 57.0278C39.7827 55.4313 38.3139 53.6653 36.8794 51.7658C38.272 51.8206 39.6917 51.8487 41.1346 51.8487C42.617 51.8487 44.0824 51.8152 45.5248 51.7507C44.1086 53.6844 42.6786 55.4532 41.2553 57.0278ZM56.0845 40.523C57.0566 42.7493 57.8761 44.9035 58.5267 46.9517C56.418 47.4351 54.1413 47.8244 51.7425 48.1137C52.4974 46.9115 53.2427 45.6711 53.9751 44.3951C54.7159 43.1042 55.4194 41.8113 56.0845 40.523ZM51.2838 42.8354C50.1469 44.8162 48.9798 46.707 47.7948 48.4919C45.6367 48.6469 43.4071 48.7268 41.1346 48.7268C38.8713 48.7268 36.6698 48.6562 34.5498 48.5179C33.3172 46.7096 32.1246 44.8132 30.995 42.8525H30.9953C29.8686 40.8971 28.8317 38.9252 27.8921 36.9643C28.8314 34.999 29.8656 33.0248 30.9858 31.073L30.9855 31.0734C32.1087 29.1163 33.2908 27.2291 34.512 25.4321C36.675 25.2679 38.893 25.1821 41.1345 25.1821H41.1346C43.3862 25.1821 45.607 25.2685 47.7693 25.4342C48.972 27.218 50.146 29.0991 51.2736 31.0565C52.414 33.0358 53.4615 34.9967 54.4089 36.92C53.4644 38.8763 52.4191 40.857 51.2838 42.8354ZM57.693 7.97293C60.1285 9.38418 61.0756 15.0757 59.5454 22.5391C59.4478 23.0154 59.3379 23.5004 59.2185 23.992C56.2012 23.2924 52.9247 22.7719 49.4942 22.4485C47.4958 19.5889 45.4249 16.9892 43.3462 14.7386C43.9051 14.1983 44.4632 13.6832 45.0189 13.1971C50.3882 8.50184 55.4066 6.64805 57.693 7.97293Z" fill="white"/>
<path d="M41.1346 30.3633C44.7213 30.3633 47.629 33.2849 47.629 36.8891C47.629 40.4931 44.7213 43.4148 41.1346 43.4148C37.5479 43.4148 34.6402 40.4931 34.6402 36.8891C34.6402 33.2849 37.5479 30.3633 41.1346 30.3633Z" fill="#53C1DE"/>
</svg>
