<svg width="65" height="65" viewBox="0 0 65 65" fill="none" xmlns="http://www.w3.org/2000/svg">
<path d="M4.61194 32.4759C4.61194 43.5037 11.0145 53.0339 20.2988 57.5501L7.02171 21.1375C5.47734 24.6024 4.61194 28.4368 4.61194 32.4759Z" fill="#21759B"/>
<path d="M51.2355 31.0701C51.2355 27.6269 49.9999 25.2423 48.9402 23.3863C47.5293 21.0914 46.2068 19.1479 46.2068 16.853C46.2068 14.2919 48.1473 11.9079 50.8807 11.9079C51.0041 11.9079 51.1211 11.9233 51.2414 11.9302C46.2894 7.38905 39.6919 4.61646 32.4457 4.61646C22.7218 4.61646 14.1668 9.6103 9.19 17.1742C9.84302 17.1939 10.4584 17.2076 10.9812 17.2076C13.8925 17.2076 18.3991 16.854 18.3991 16.854C19.8995 16.7655 20.0764 18.9714 18.5775 19.149C18.5775 19.149 17.0697 19.3266 15.3919 19.4146L25.5277 49.5924L31.6189 31.3065L27.2824 19.4135C25.7836 19.3255 24.3636 19.1479 24.3636 19.1479C22.8638 19.0599 23.0396 16.7644 24.5395 16.853C24.5395 16.853 29.1361 17.2066 31.871 17.2066C34.7818 17.2066 39.2889 16.853 39.2889 16.853C40.7904 16.7644 40.9667 18.9703 39.4674 19.1479C39.4674 19.1479 37.9564 19.3255 36.2817 19.4135L46.3403 49.3628L49.1165 40.0765C50.3198 36.223 51.2355 33.4551 51.2355 31.0701Z" fill="#21759B"/>
<path d="M32.934 34.9128L24.5829 59.203C27.0764 59.9367 29.7134 60.338 32.4457 60.338C35.687 60.338 38.7953 59.7771 41.6886 58.7587C41.614 58.6395 41.5462 58.5128 41.4906 58.3749L32.934 34.9128Z" fill="#21759B"/>
<path d="M56.8686 19.1091C56.9883 19.9966 57.0561 20.9492 57.0561 21.974C57.0561 24.8012 56.5286 27.9793 54.9398 31.9532L46.4377 56.5582C54.7125 51.7282 60.2783 42.7546 60.2783 32.4764C60.2789 27.6326 59.0427 23.0777 56.8686 19.1091Z" fill="#21759B"/>
<path d="M32.4456 0C14.5556 0 0 14.5686 0 32.4759C0 50.3854 14.5556 64.9534 32.4456 64.9534C50.3352 64.9534 64.8929 50.3854 64.8929 32.4759C64.8923 14.5686 50.3352 0 32.4456 0ZM32.4456 63.4648C15.376 63.4648 1.4877 49.5631 1.4877 32.4759C1.4877 15.3897 15.3754 1.48914 32.4456 1.48914C49.5148 1.48914 63.402 15.3897 63.402 32.4759C63.402 49.5631 49.5148 63.4648 32.4456 63.4648Z" fill="#21759B"/>
</svg>
