<svg width="79" height="65" viewBox="0 0 79 65" fill="none" xmlns="http://www.w3.org/2000/svg">
<path d="M0 10.0234H18.4695V15.4205H0V10.0234ZM0 0H18.4695V5.39719H0V0ZM33.1365 19.9696H0V25.3668H31.8949C35.387 25.3668 43.5354 25.4439 46.5619 30.3014V27.2944C45.0874 22.514 40.7417 19.9696 33.1365 19.9696ZM33.2141 29.993H0V35.3901H31.8949C39.6552 35.3901 44.5442 35.6986 46.5619 36.778V34.3878C45.0098 30.6098 38.4912 29.993 33.2141 29.993ZM33.1365 55.4369H0V50.0397H31.8949C35.387 50.0397 43.5354 49.9626 46.5619 45.1051V48.1121C45.0874 52.8925 40.7417 55.4369 33.1365 55.4369ZM33.2141 45.4135H0V40.0163H31.8949C39.6552 40.0163 44.5442 39.7079 46.5619 38.6285V41.0186C45.0098 44.7967 38.4912 45.4135 33.2141 45.4135ZM54.6326 64.7663H79V61.4509H55.331C53.2358 61.4509 48.2692 61.3738 46.4843 58.521V60.3714C47.3379 63.2242 49.9764 64.7663 54.6326 64.7663ZM54.555 58.6752H78.9224V55.3597H55.331C50.5972 55.3597 47.6483 55.2055 46.4843 54.5116V55.9766C47.4155 58.2897 51.3733 58.6752 54.555 58.6752Z" fill="#010101"/>
</svg>
