<svg width="82" height="65" viewBox="0 0 82 65" fill="none" xmlns="http://www.w3.org/2000/svg">
<g clip-path="url(#clip0_53845_77)">
<path d="M9.04578 8.49461C8.89107 4.07525 12.3525 0 17.0313 0H64.9746C69.6534 0 73.1149 4.07525 72.9601 8.49461C72.8115 12.7398 73.0045 18.239 74.3958 22.7229C75.7915 27.2207 78.1452 30.0636 82 30.4289V34.5711C78.1452 34.9364 75.7915 37.7793 74.3958 42.2771C73.0045 46.761 72.8115 52.2602 72.9601 56.5056C73.1149 60.9248 69.6534 65 64.9746 65H17.0313C12.3525 65 8.89107 60.9248 9.04595 56.5056C9.19441 52.2602 9.00142 46.761 7.60998 42.2771C6.21438 37.7793 3.85496 34.9364 0 34.5711V30.4289C3.8548 30.0636 6.21438 27.2207 7.60998 22.7229C9.00142 18.239 9.19441 12.7398 9.04578 8.49461V8.49461Z" fill="url(#paint0_linear_53845_77)"/>
<g filter="url(#filter0_d_53845_77)">
<path d="M42.7782 49.7786C50.3531 49.7786 54.9177 46.0892 54.9177 40.0039C54.9177 35.4041 51.6608 32.0739 46.8247 31.5467V31.3551C50.3778 30.7801 53.1659 27.4979 53.1659 23.8325C53.1659 18.6097 49.0208 15.2075 42.7042 15.2075H28.4919V49.7786H42.7782ZM34.0189 19.5918H41.3719C45.3691 19.5918 47.6389 21.3647 47.6389 24.575C47.6389 28.0011 44.9989 29.9176 40.2122 29.9176H34.0189V19.5918V19.5918ZM34.0189 45.3945V34.0145H41.3224C46.5532 34.0145 49.2674 35.9311 49.2674 39.6686C49.2674 43.4059 46.6274 45.3945 41.6432 45.3945H34.0189V45.3945Z" fill="url(#paint1_linear_53845_77)"/>
<path d="M42.7782 49.7786C50.3531 49.7786 54.9177 46.0892 54.9177 40.0039C54.9177 35.4041 51.6608 32.0739 46.8247 31.5467V31.3551C50.3778 30.7801 53.1659 27.4979 53.1659 23.8325C53.1659 18.6097 49.0208 15.2075 42.7042 15.2075H28.4919V49.7786H42.7782ZM34.0189 19.5918H41.3719C45.3691 19.5918 47.6389 21.3647 47.6389 24.575C47.6389 28.0011 44.9989 29.9176 40.2122 29.9176H34.0189V19.5918V19.5918ZM34.0189 45.3945V34.0145H41.3224C46.5532 34.0145 49.2674 35.9311 49.2674 39.6686C49.2674 43.4059 46.6274 45.3945 41.6432 45.3945H34.0189V45.3945Z" stroke="white"/>
</g>
</g>
<defs>
<filter id="filter0_d_53845_77" x="11.9919" y="2.70752" width="59.4258" height="67.571" filterUnits="userSpaceOnUse" color-interpolation-filters="sRGB">
<feFlood flood-opacity="0" result="BackgroundImageFix"/>
<feColorMatrix in="SourceAlpha" type="matrix" values="0 0 0 0 0 0 0 0 0 0 0 0 0 0 0 0 0 0 127 0" result="hardAlpha"/>
<feOffset dy="4"/>
<feGaussianBlur stdDeviation="8"/>
<feColorMatrix type="matrix" values="0 0 0 0 0 0 0 0 0 0 0 0 0 0 0 0 0 0 0.15 0"/>
<feBlend mode="normal" in2="BackgroundImageFix" result="effect1_dropShadow_53845_77"/>
<feBlend mode="normal" in="SourceGraphic" in2="effect1_dropShadow_53845_77" result="shape"/>
</filter>
<linearGradient id="paint0_linear_53845_77" x1="12.1845" y1="1.72027" x2="83.5461" y2="58.6666" gradientUnits="userSpaceOnUse">
<stop stop-color="#9013FE"/>
<stop offset="1" stop-color="#6610F2"/>
</linearGradient>
<linearGradient id="paint1_linear_53845_77" x1="30.9915" y1="17.483" x2="46.8832" y2="44.5015" gradientUnits="userSpaceOnUse">
<stop stop-color="white"/>
<stop offset="1" stop-color="#F1E5FC"/>
</linearGradient>
<clipPath id="clip0_53845_77">
<rect width="82" height="65" fill="white"/>
</clipPath>
</defs>
</svg>
