<svg width="162" height="38" viewBox="0 0 162 38" fill="none" xmlns="http://www.w3.org/2000/svg">
<path fill-rule="evenodd" clip-rule="evenodd" d="M154.373 3.69092L161.139 3.72809C161.139 3.72809 148.56 20.7732 147.533 22.1624C147.199 22.6122 146.692 23.0974 146.435 23.6987C145.786 25.2106 145.119 28.5268 145.119 28.5268L138.928 28.5575C138.928 28.5575 139.891 25.1009 139.851 23.2597C139.816 21.6512 138.995 20.0448 138.535 18.4317C138.069 16.799 137.437 13.6036 137.437 13.6036H143.802L144.68 17.115L154.373 3.69092Z" fill="#1A1918"/>
<path fill-rule="evenodd" clip-rule="evenodd" d="M141.561 7.2855C142.81 8.03834 143.576 12.1904 143.576 12.1904C143.576 12.1904 137.043 12.2868 133.487 12.2868H130.415L126.684 28.5267H120.979C120.979 28.5267 124.529 10.8781 125.368 7.67834C125.64 6.64265 127.229 6.82017 129.912 6.82017H134.198C136.966 6.82017 140.201 6.46699 141.561 7.2855Z" fill="#1A1918"/>
<path fill-rule="evenodd" clip-rule="evenodd" d="M114.998 15.1949C114.998 15.1949 115.176 14.1524 114.395 12.9454C113.728 11.9162 113.111 11.677 111.356 11.6222C106.398 11.4664 106.494 15.1401 106.494 15.1401L114.998 15.1949ZM120.375 10.988C121.102 13.6084 119.717 19.7662 119.717 19.7662C119.717 19.7662 112.485 19.6453 108.525 19.7662C107.293 19.8036 105.819 19.6323 105.452 20.2052C104.936 21.0082 105.64 22.244 106.238 22.766C106.925 23.3674 108.263 23.4355 108.744 23.4969C111.959 23.9052 118.688 23.6022 118.688 23.6022L117.522 28.7636C117.522 28.7636 108.013 29.2401 103.257 28.1053C102.318 27.8816 101.438 27.4296 100.843 26.7886C100.681 26.6133 100.54 26.3741 100.387 26.1677C100.264 26.0029 99.9065 25.4611 99.7461 25.0329C98.6599 22.1384 99.8734 16.5928 101.063 13.6214C101.201 13.2769 101.374 12.8404 101.557 12.4692C101.785 12.0064 101.978 11.484 102.16 11.2074C102.283 11.0165 102.435 10.8935 102.562 10.7135C102.709 10.5007 102.88 10.2943 103.038 10.1103C103.477 9.60099 103.975 9.24099 104.574 8.79363C106.556 7.30995 110.142 6.15776 114.45 6.59893C116.071 6.76561 118.521 7.34496 119.717 9.01297C120.037 9.45848 120.195 10.3427 120.375 10.988Z" fill="#1A1918"/>
<path fill-rule="evenodd" clip-rule="evenodd" d="M94.2048 6.80042L99.7373 6.76758C99.7373 6.76758 96.6541 21.3943 95.0828 28.5267H88.7183C84.2701 28.5267 80.3089 29.0776 78.6235 25.8931C76.9886 22.8012 78.5488 17.7162 79.2818 14.2619C79.7998 11.8172 80.8907 6.82025 80.8907 6.82025L86.6228 6.76758C86.6228 6.76758 85.0031 14.5472 84.3293 18.4316C84.0879 19.823 83.5901 21.1331 84.1099 22.1623C84.6037 23.1413 85.2949 23.2113 87.4016 23.2597C88.069 23.2752 90.2547 23.2597 90.2547 23.2597L94.2048 6.80042Z" fill="#1A1918"/>
<path fill-rule="evenodd" clip-rule="evenodd" d="M68.3091 17.3342C68.8884 15.2759 69.7332 13.044 69.6257 11.1895C69.5096 9.20576 67.8462 7.39957 66.773 7.02006C63.5405 5.87872 60.5142 7.47424 59.3116 8.77544C57.7554 10.4611 57.2287 12.4296 56.6779 15.1399C56.2677 17.1521 55.9318 19.2764 56.6779 20.8456C57.9989 23.6197 62.1181 23.014 66.5534 23.0403C67.2117 21.2759 67.756 19.2941 68.3091 17.3342ZM75.9902 9.21444C76.6222 13.8098 74.1973 18.8817 72.5271 23.2925C74.2301 23.4462 75.7225 23.2686 75.83 23.3957C75.9418 23.5605 74.6887 28.6606 74.2518 28.6736C72.9001 28.7089 68.4212 28.7461 66.5534 28.7461C60.4591 28.7461 54.7577 29.1433 51.8501 26.1127C50.6694 24.8815 49.8531 22.7702 49.6554 21.2846C49.3261 18.8046 49.7388 16.0746 50.3138 13.8232C50.8339 11.7908 51.501 9.87278 52.5085 8.11709C55.0693 3.64685 59.5244 0.328787 66.9924 1.09464C68.4407 1.24396 70.5211 1.87815 71.8204 2.63067C71.9103 2.68365 72.2244 2.93367 72.2966 2.97766C74.0523 4.09483 75.6522 6.76105 75.9902 9.21444Z" fill="#1A1918"/>
<path fill-rule="evenodd" clip-rule="evenodd" d="M49.0256 6.82687C48.6569 8.50573 48.2882 10.4086 47.8997 12.0676H41.7549C42.2311 10.2286 42.5955 8.40039 43.0716 6.80054C45.038 6.80054 46.8662 6.82687 49.0256 6.82687Z" fill="#1A1918"/>
<path fill-rule="evenodd" clip-rule="evenodd" d="M41.5356 13.6038H47.4607C46.6862 17.8921 45.1523 24.8093 43.9496 29.624C43.1968 32.6372 42.6943 34.8363 40.6576 36.4271C40.4754 36.5699 40.3704 36.5021 40.2189 36.6468C39.8434 37.0046 38.1075 37.4194 37.1465 37.5245C35.5838 37.6936 33.8173 37.5465 31.8971 37.5071C32.3996 35.6703 32.9681 33.4647 33.4158 31.8187C38.0967 32.385 38.2154 27.9606 39.1215 23.6989C39.6461 21.2365 41.2351 14.5914 41.5356 13.6038Z" fill="#1A1918"/>
<path fill-rule="evenodd" clip-rule="evenodd" d="M27.7097 24.796L27.5827 25.125C25.4187 29.3384 21.5848 31.9238 16.116 32.0378C13.5595 32.0904 11.1235 31.4346 9.53227 30.7211C6.09803 29.1782 3.20967 26.3168 1.63212 23.2596C-0.630726 18.8771 -1.03875 12.7806 3.66633 8.22705C3.73883 8.22705 3.09566 9.21441 3.16816 9.21441L3.03866 9.63575C-0.351897 20.2508 10.094 29.3474 20.2483 28.307C22.6886 28.057 25.8007 26.7205 27.7097 24.796Z" fill="#21609B"/>
<path fill-rule="evenodd" clip-rule="evenodd" d="M21.565 20.4067C24.1196 20.4244 26.788 19.2303 28.3681 17.554C26.9857 21.0632 22.983 23.3189 17.6149 22.6014C13.1205 22 8.8389 17.4771 8.39774 12.9452C8.07522 9.647 9.22493 7.67847 11.1191 5.29077C10.4608 6.53961 10.2148 7.50281 10.1534 8.11716C9.43374 15.2518 15.8527 20.3695 21.565 20.4067Z" fill="#21609B"/>
<path fill-rule="evenodd" clip-rule="evenodd" d="M28.1116 11.5451C27.7144 12.456 25.4277 14.1763 24.418 14.3913C20.4196 15.243 17.8587 13.347 16.5176 11.1894C16.318 10.8669 15.9494 9.98708 15.8834 9.76309C15.3632 7.99438 15.6024 5.31918 17.1542 3.93433C16.6867 5.25102 16.6186 6.78055 16.8645 7.77473C17.0136 8.37607 17.4677 9.42539 17.9222 10.0856C18.7494 11.2883 19.2739 11.5804 20.3363 12.2189C20.8146 12.5064 21.328 12.7369 21.5498 12.8005C22.557 13.0966 24.6835 13.878 28.1116 11.5451Z" fill="#21609B"/>
</svg>
