<svg width="65" height="66" viewBox="0 0 65 66" fill="none" xmlns="http://www.w3.org/2000/svg">
<path d="M0 0.984375H65V65.9844H0V0.984375Z" fill="#F7DF1E"/>
<path d="M17.0909 55.3031L22.0651 52.2928C23.0248 53.9943 23.8977 55.4339 25.9917 55.4339C27.9988 55.4339 29.2643 54.6487 29.2643 51.5947V30.8257H35.3726V51.6811C35.3726 58.0078 31.6641 60.8875 26.2535 60.8875C21.3671 60.8875 18.5306 58.3567 17.0908 55.3026" fill="black"/>
<path d="M38.6905 54.6485L43.6641 51.7688C44.9734 53.907 46.675 55.4776 49.6855 55.4776C52.2164 55.4776 53.8304 54.2121 53.8304 52.4668C53.8304 50.3725 52.1725 49.6307 49.38 48.4094L47.8533 47.7544C43.4462 45.8786 40.5227 43.5225 40.5227 38.5484C40.5227 33.967 44.0132 30.4763 49.4675 30.4763C53.3507 30.4763 56.1432 31.829 58.15 35.3633L53.3941 38.4174C52.3469 36.5413 51.2128 35.7997 49.4676 35.7997C47.6786 35.7997 46.5441 36.9341 46.5441 38.4174C46.5441 40.2499 47.6786 40.9919 50.2963 42.1264L51.8233 42.7808C57.0155 45.0062 59.939 47.2748 59.939 52.3796C59.939 57.8775 55.6195 60.8879 49.8165 60.8879C44.1444 60.8879 40.4792 58.1828 38.6906 54.6485" fill="black"/>
</svg>
