<svg width="20" height="20" viewBox="0 0 20 20" fill="none" xmlns="http://www.w3.org/2000/svg">
<path d="M16.6692 15.8327H14.1648C14.1648 15.8327 14.1648 12.4418 14.1648 11.1645C14.1648 8.35462 10.834 8.57 10.834 11.1645C10.834 12.5319 10.834 15.8327 10.834 15.8327H8.33459V6.66667H10.834V8.13924C11.996 5.98047 16.6692 5.82519 16.6692 10.2029C16.6692 12.582 16.6692 15.8327 16.6692 15.8327ZM5.41948 5.60982C4.61307 5.60982 3.95692 4.95367 3.95692 4.14225C3.95692 3.33083 4.61307 2.66967 5.41948 2.66967C6.22089 2.66967 6.87703 3.33083 6.87703 4.14225C6.87703 4.95367 6.22089 5.60982 5.41948 5.60982ZM6.66667 15.8327H4.16729V6.66667H6.66667V15.8327ZM15.8327 0H4.16729C1.86326 0 0 1.86326 0 4.16729V15.8327C0 18.1317 1.86326 20 4.16729 20H15.8327C18.1367 20 20 18.1317 20 15.8327V4.16729C20 1.86326 18.1367 0 15.8327 0Z" fill="white"/>
</svg>
