<svg width="30" height="30" viewBox="0 0 30 30" fill="none" xmlns="http://www.w3.org/2000/svg">
<path d="M25.0038 23.7491H21.2472C21.2472 23.7491 21.2472 18.6627 21.2472 16.7468C21.2472 12.5319 16.2509 12.855 16.2509 16.7468C16.2509 18.7979 16.2509 23.7491 16.2509 23.7491H12.5019L12.5019 10H16.2509L16.2509 12.2089C17.994 8.9707 25.0038 8.73779 25.0038 15.3043C25.0038 18.873 25.0038 23.7491 25.0038 23.7491ZM8.12923 8.41472C6.91961 8.41472 5.93539 7.4305 5.93539 6.21337C5.93539 4.99624 6.91961 4.00451 8.12923 4.00451C9.33133 4.00451 10.3156 4.99624 10.3156 6.21337C10.3156 7.4305 9.33133 8.41472 8.12923 8.41472ZM10 23.7491H6.25094L6.25094 10H10L10 23.7491ZM23.7491 0L6.25094 0C2.79489 0 0 2.79489 0 6.25094L0 23.7491C0 27.1976 2.79489 30 6.25094 30L23.7491 30C27.2051 30 30 27.1976 30 23.7491L30 6.25094C30 2.79489 27.2051 0 23.7491 0Z" fill="black"/>
</svg>
